<?xml version="1.0" encoding="UTF-8"?>
<!DOCTYPE svg PUBLIC "-//W3C//DTD SVG 1.1//EN" "http://www.w3.org/Graphics/SVG/1.1/DTD/svg11.dtd">
<!-- Creator: CorelDRAW -->
<svg xmlns="http://www.w3.org/2000/svg" xml:space="preserve" width="201.835mm" height="53.5767mm" version="1.1" shape-rendering="geometricPrecision" text-rendering="geometricPrecision" image-rendering="optimizeQuality" fill-rule="evenodd" clip-rule="evenodd"
viewBox="0 0 20008.37 5311.18"
 xmlns:xlink="http://www.w3.org/1999/xlink"
 xmlns:xodm="http://www.corel.com/coreldraw/odm/2003">
 <defs>
     <clipPath id="id0">
      <path d="M-0 0l14976.32 0 0 5311.18 -14976.32 0 0 -5311.18z"/>
     </clipPath>
    <linearGradient id="id1" gradientUnits="userSpaceOnUse" x1="185.85" y1="2436.46" x2="14274.32" y2="2350.7">
     <stop offset="0" stop-opacity="1" stop-color="#6709A5"/>
     <stop offset="0.101961" stop-opacity="1" stop-color="#3827B4"/>
     <stop offset="0.2" stop-opacity="1" stop-color="#2142C1"/>
     <stop offset="0.301961" stop-opacity="1" stop-color="#1A96E5"/>
     <stop offset="0.4" stop-opacity="1" stop-color="#19C2F8"/>
     <stop offset="0.501961" stop-opacity="1" stop-color="#22B78E"/>
     <stop offset="0.6" stop-opacity="1" stop-color="#3EA800"/>
     <stop offset="0.701961" stop-opacity="1" stop-color="#94BD00"/>
     <stop offset="0.8" stop-opacity="1" stop-color="#FDE000"/>
     <stop offset="0.901961" stop-opacity="1" stop-color="#E3A000"/>
     <stop offset="1" stop-opacity="1" stop-color="#A30000"/>
    </linearGradient>
 </defs>
 <g id="Capa_x0020_1">
  <metadata id="CorelCorpID_0Corel-Layer"/>
  <g id="_1771840097360">
   <g>
    <g clip-path="url(#id0)">
     <image x="-0" y="0" width="14976.32" height="5311.18" xlink:href="aeroco_multicolor_Images\aeroco_multicolor_ImgID1.png"/>
    </g>
   </g>
   <path fill="url(#id1)" fill-rule="nonzero" d="M3498.37 4309.04c-83.21,48.61 -169.37,92.05 -259.22,128.87 -270.25,112.68 -552.3,168.64 -845.4,168.64 -293.08,0 -575.13,-55.96 -845.39,-168.64 -271,-111.92 -509.62,-271.74 -716.53,-478.66 -206.92,-206.9 -366.73,-445.53 -478.66,-716.53 -112.66,-270.26 -168.64,-552.32 -168.64,-845.4 0,-293.08 55.98,-575.13 168.64,-845.4 111.93,-270.99 271.74,-509.62 478.66,-716.52 206.91,-206.92 445.53,-366.74 716.53,-478.66 270.26,-112.68 552.31,-168.64 845.39,-168.64 293.1,0 575.15,55.96 845.4,168.64 271,111.92 509.6,271.73 716.53,478.66 278.42,278.42 444.22,506.52 556.6,883.15 107,-259.37 256.65,-485.36 455.13,-683.84 195.61,-195.58 421.1,-346.63 677.24,-452.41 255.43,-106.49 522.01,-159.38 799.04,-159.38 277.02,0 543.6,52.9 799.02,159.38 256.14,105.78 481.65,256.83 677.24,452.41 195.58,195.59 346.63,421.09 453.1,677.23l5.44 13.42c19.38,-60.89 41.5,-121.22 66.41,-180.96 111.93,-271 271.73,-509.6 478.66,-716.53 206.94,-206.93 445.53,-366.73 716.52,-478.66 270.27,-112.67 552.32,-168.64 845.4,-168.64l0 666.57c6.3,-6.45 12.64,-12.87 19.03,-19.26 206.94,-206.93 445.53,-366.73 716.52,-478.66 270.27,-112.67 552.32,-168.64 845.4,-168.64 293.1,0 575.15,55.97 845.4,168.64 271,111.93 509.6,271.73 716.53,478.66 206.93,206.93 366.74,445.53 478.66,716.53 112.68,270.26 168.64,552.32 168.64,845.4 0,293.08 -55.96,575.13 -168.64,845.4 -111.92,270.99 -271.73,509.6 -478.66,716.52 -206.93,206.93 -445.53,366.74 -716.53,478.67 -270.25,112.67 -552.3,168.63 -845.4,168.63 -293.08,0 -575.13,-55.96 -845.4,-168.63 -270.99,-111.93 -509.58,-271.74 -716.52,-478.67 -206.93,-206.92 -366.73,-445.53 -478.67,-716.52 -112.66,-270.27 -168.63,-552.32 -168.63,-845.4 0,-293.08 55.97,-575.14 168.63,-845.4 28.52,-69.06 60.17,-136.02 94.9,-200.87 -153.62,52.62 -292.54,140.89 -416.59,264.94 -215.76,215.77 -323.28,476.45 -323.28,781.33l0 2209.22 -1104.61 0 0 -2091.62 -2085.24 635.55 -277.71 -1007.13 1215.25 -375.17c-192.78,-195.57 -421.09,-293.72 -684.88,-293.72 -288.15,0 -534.55,101.61 -738.49,305.56 -203.93,203.94 -305.56,450.33 -305.56,738.49 0,288.15 101.63,534.53 305.56,738.48 203.93,203.93 450.34,305.56 738.49,305.56 288.15,0 534.53,-102.31 738.48,-306.26l737.78 738.49c-195.59,195.58 -421.1,346.63 -677.24,452.4 -255.41,106.5 -522,159.39 -799.02,159.39 -277.03,0 -543.6,-52.9 -799.04,-159.39 -256.14,-105.77 -481.63,-256.82 -677.24,-452.4 -146.6,-146.61 -268.17,-310.05 -364.42,-490.59l0 1109.91 -1104.61 -0.01 0 -297.52zm8568.05 -814.62c304.88,0 565.56,-107.51 781.33,-323.28 215.77,-215.77 323.29,-476.45 323.29,-781.33 0,-304.88 -107.52,-565.56 -323.29,-781.33 -215.77,-215.77 -476.45,-323.28 -781.33,-323.28 -304.86,0 -565.56,107.51 -781.33,323.28 -215.76,215.77 -323.28,476.45 -323.28,781.33 0,304.88 107.52,565.56 323.28,781.33 215.77,215.77 476.47,323.28 781.33,323.28zm-9672.67 -2201.71c-304.86,0 -565.58,107.52 -781.33,323.28 -215.74,215.75 -323.28,476.46 -323.28,781.33 0,304.88 107.54,565.59 323.28,781.34 215.75,215.75 476.47,323.28 781.33,323.28 304.88,0 565.57,-107.51 781.34,-323.28 215.77,-215.78 323.28,-476.46 323.28,-781.34 0,-304.87 -107.51,-565.56 -323.28,-781.33 -215.77,-215.77 -476.46,-323.28 -781.34,-323.28z"/>
   <path fill="white" fill-rule="nonzero" d="M18572.2 4599.03c-190.52,0 -373.88,-36.38 -549.57,-109.63 -176.17,-72.75 -331.27,-176.64 -465.8,-311.17 -134.51,-134.51 -238.39,-289.62 -311.17,-465.79 -73.24,-175.69 -109.63,-359.05 -109.63,-549.58 0,-190.52 36.39,-373.88 109.63,-549.57 72.77,-176.17 176.65,-331.28 311.17,-465.79 134.53,-134.52 289.63,-238.41 465.8,-311.18 175.69,-73.25 359.05,-109.62 549.57,-109.62 190.54,0 373.89,36.37 549.58,109.62 176.17,72.76 331.27,176.65 465.79,311.18 134.52,134.51 238.4,289.62 311.17,465.79 73.25,175.69 109.63,359.05 109.63,549.57 0,190.53 -36.38,373.89 -109.63,549.58 -72.76,176.17 -176.64,331.28 -311.17,465.79 -134.52,134.52 -289.62,238.41 -465.79,311.17 -175.69,73.25 -359.04,109.63 -549.58,109.63zm0 -718.08c198.2,0 367.66,-69.89 507.92,-210.15 140.27,-140.27 210.16,-309.74 210.16,-507.93 0,-198.19 -69.89,-367.65 -210.16,-507.92 -140.26,-140.26 -309.73,-210.16 -507.92,-210.16 -198.19,0 -367.65,69.9 -507.92,210.16 -140.26,140.27 -210.16,309.74 -210.16,507.92 0,198.2 69.9,367.66 210.16,507.93 140.27,140.26 309.74,210.15 507.92,210.15z"/>
   <path fill="white" fill-rule="nonzero" d="M17287.75 4184.18c-281.04,281.59 -621.48,422.38 -1021.31,422.38 -399.84,0 -740.27,-140.8 -1021.31,-422.38 -281.59,-281.04 -422.38,-621.47 -422.38,-1021.31 0,-399.83 140.8,-740.27 422.38,-1021.31 281.04,-281.59 621.47,-422.38 1021.31,-422.38 399.83,0 740.27,140.8 1021.31,422.38l3.29 2.75 -438.33 438.33 -2.75 -3.29c-161.14,-161.15 -355.84,-241.45 -583.52,-241.45 -227.69,0 -422.38,80.3 -583.53,241.45 -161.14,161.14 -241.44,355.83 -241.44,583.52 0,227.69 80.3,422.38 241.44,583.53 161.15,161.14 355.85,241.44 583.53,241.44 227.69,0 422.38,-80.85 583.52,-241.99l2.75 -2.76 438.33 438.33 -3.29 2.76z"/>
  </g>
 </g>
</svg>
