<?xml version="1.0" encoding="UTF-8"?>
<!DOCTYPE svg PUBLIC "-//W3C//DTD SVG 1.1//EN" "http://www.w3.org/Graphics/SVG/1.1/DTD/svg11.dtd">
<!-- Creator: CorelDRAW -->
<svg xmlns="http://www.w3.org/2000/svg" xml:space="preserve" width="199.974mm" height="45.0929mm" version="1.1" shape-rendering="geometricPrecision" text-rendering="geometricPrecision" image-rendering="optimizeQuality" fill-rule="evenodd" clip-rule="evenodd"
viewBox="0 0 19970.66 4503.27"
 xmlns:xlink="http://www.w3.org/1999/xlink"
 xmlns:xodm="http://www.corel.com/coreldraw/odm/2003">
 <g id="Capa_x0020_1">
  <metadata id="CorelCorpID_0Corel-Layer"/>
  <g id="_1864317356272">
   <path fill="black" fill-rule="nonzero" d="M3338.38 4151.46c-83.83,48.97 -170.62,92.74 -261.14,129.83 -272.26,113.52 -556.39,169.89 -851.66,169.89 -295.26,0 -579.38,-56.37 -851.65,-169.89 -273,-112.75 -513.36,-273.74 -721.83,-482.2 -208.46,-208.46 -369.45,-448.83 -482.2,-721.83 -113.5,-272.27 -169.89,-556.4 -169.89,-851.66 0,-295.26 56.39,-579.38 169.89,-851.65 112.76,-273 273.74,-513.37 482.2,-721.83 208.47,-208.46 448.83,-369.46 721.83,-482.2 272.27,-113.52 556.4,-169.89 851.65,-169.89 295.28,0 579.4,56.37 851.66,169.89 273,112.75 513.37,273.74 721.83,482.2 208.46,208.46 369.46,448.83 482.2,721.83 30.23,72.48 56.39,145.79 78.51,219.95l2.75 -6.66c106.58,-258.03 258.73,-485.22 455.75,-682.26 197.06,-197.03 424.22,-349.18 682.26,-455.75 257.33,-107.29 525.88,-160.58 804.95,-160.58 279.07,0 547.63,53.29 804.93,160.58 258.03,106.57 485.22,258.72 682.26,455.75 197.03,197.04 349.19,424.22 456.46,682.26l5.48 13.51c19.52,-61.34 41.8,-122.11 66.9,-182.29 112.76,-273 273.74,-513.37 482.2,-721.83 208.47,-208.46 448.83,-369.46 721.82,-482.2 272.28,-113.52 556.41,-169.89 851.66,-169.89l0 671.5c6.35,-6.5 12.73,-12.97 19.17,-19.4 208.47,-208.46 448.83,-369.46 721.82,-482.2 272.28,-113.52 556.41,-169.89 851.66,-169.89 295.28,0 579.4,56.37 851.66,169.89 273,112.75 513.37,273.74 721.83,482.2 208.46,208.46 369.46,448.83 482.2,721.83 113.52,272.27 169.89,556.4 169.89,851.65 0,295.27 -56.37,579.39 -169.89,851.66 -112.75,273 -273.74,513.37 -482.2,721.83 -208.46,208.46 -448.83,369.46 -721.83,482.2 -272.26,113.52 -556.39,169.89 -851.66,169.89 -295.26,0 -579.38,-56.37 -851.66,-169.89 -272.99,-112.75 -513.35,-273.74 -721.82,-482.2 -208.46,-208.46 -369.45,-448.83 -482.21,-721.83 -113.5,-272.27 -169.88,-556.4 -169.88,-851.66 0,-295.26 56.38,-579.38 169.88,-851.65 28.73,-69.57 60.62,-137.03 95.6,-202.37 -154.75,53.02 -294.71,141.93 -419.68,266.9 -217.36,217.37 -325.67,479.99 -325.67,787.12l0 2225.59 -1112.79 0 0 -2107.12 -2100.68 640.26 -279.77 -1014.59 1224.25 -377.94c-194.21,-197.03 -424.21,-295.89 -689.95,-295.89 -290.28,0 -538.51,102.36 -743.95,307.82 -205.44,205.45 -307.82,453.65 -307.82,743.95 0,290.28 102.38,538.49 307.82,743.94 205.45,205.45 453.67,307.81 743.95,307.81 290.28,0 538.49,-103.07 743.94,-308.52l743.25 743.95c-197.04,197.03 -424.22,349.18 -682.26,455.75 -257.31,107.29 -525.87,160.58 -804.93,160.58 -279.08,0 -547.63,-53.29 -804.95,-160.58 -258.03,-106.57 -485.2,-258.72 -682.26,-455.75 -147.68,-147.7 -270.16,-312.34 -367.12,-494.22l0 1066.03 -1112.79 0 0 -299.72zm8631.5 -768.56c307.14,0 569.75,-108.31 787.12,-325.67 217.37,-217.37 325.68,-479.99 325.68,-787.13 0,-307.13 -108.32,-569.75 -325.68,-787.12 -217.37,-217.37 -479.98,-325.67 -787.12,-325.67 -307.12,0 -569.75,108.31 -787.12,325.67 -217.36,217.37 -325.67,479.99 -325.67,787.12 0,307.14 108.32,569.76 325.67,787.13 217.37,217.37 480,325.67 787.12,325.67zm-9744.31 -2270.1c-307.12,0 -569.75,108.31 -787.12,325.67 -217.35,217.37 -325.67,479.99 -325.67,787.12 0,307.14 108.33,569.76 325.67,787.13 217.37,217.37 480,325.67 787.12,325.67 307.14,0 569.76,-108.31 787.13,-325.67 217.37,-217.37 325.67,-479.99 325.67,-787.13 0,-307.13 -108.31,-569.75 -325.67,-787.12 -217.37,-217.37 -479.99,-325.67 -787.13,-325.67z"/>
   <path fill="black" fill-rule="nonzero" d="M18523.85 4495.69c-191.93,0 -376.65,-36.65 -553.64,-110.44 -177.47,-73.3 -333.72,-177.95 -469.25,-313.47 -135.51,-135.52 -240.16,-291.78 -313.47,-469.24 -73.78,-177 -110.44,-361.71 -110.44,-553.65 0,-191.94 36.66,-376.65 110.44,-553.64 73.31,-177.47 177.96,-333.73 313.47,-469.25 135.53,-135.51 291.78,-240.17 469.25,-313.47 176.99,-73.79 361.71,-110.44 553.64,-110.44 191.95,0 376.66,36.65 553.65,110.44 177.47,73.3 333.72,177.96 469.24,313.47 135.52,135.52 240.17,291.78 313.47,469.25 73.79,176.99 110.44,361.7 110.44,553.64 0,191.94 -36.65,376.65 -110.44,553.65 -73.3,177.46 -177.95,333.72 -313.47,469.24 -135.52,135.52 -291.77,240.17 -469.24,313.47 -176.99,73.79 -361.7,110.44 -553.65,110.44zm0 -723.4c199.66,0 370.38,-70.41 511.69,-211.72 141.31,-141.3 211.72,-312.02 211.72,-511.69 0,-199.66 -70.41,-370.38 -211.72,-511.69 -141.3,-141.31 -312.02,-211.72 -511.69,-211.72 -199.65,0 -370.37,70.41 -511.69,211.72 -141.3,141.3 -211.72,312.02 -211.72,511.69 0,199.66 70.42,370.38 211.72,511.69 141.31,141.31 312.03,211.72 511.69,211.72z"/>
   <path fill="black" fill-rule="nonzero" d="M17229.88 4077.75c-283.12,283.68 -626.08,425.52 -1028.87,425.52 -402.8,0 -745.75,-141.84 -1028.87,-425.52 -283.67,-283.11 -425.51,-626.07 -425.51,-1028.87 0,-402.79 141.84,-745.74 425.51,-1028.86 283.12,-283.68 626.07,-425.52 1028.87,-425.52 402.79,0 745.75,141.84 1028.87,425.52l3.32 2.77 -441.58 441.58 -2.77 -3.33c-162.33,-162.33 -358.47,-243.22 -587.84,-243.22 -229.37,0 -425.51,80.89 -587.85,243.22 -162.33,162.34 -243.22,358.47 -243.22,587.84 0,229.38 80.89,425.52 243.22,587.85 162.34,162.33 358.48,243.22 587.85,243.22 229.37,0 425.51,-81.44 587.84,-243.78l2.77 -2.77 441.58 441.58 -3.32 2.77z"/>
  </g>
 </g>
</svg>
