<?xml version="1.0" encoding="UTF-8"?>
<!DOCTYPE svg PUBLIC "-//W3C//DTD SVG 1.1//EN" "http://www.w3.org/Graphics/SVG/1.1/DTD/svg11.dtd">
<!-- Creator: CorelDRAW -->
<svg xmlns="http://www.w3.org/2000/svg" xml:space="preserve" width="199.974mm" height="45.0929mm" version="1.1" shape-rendering="geometricPrecision" text-rendering="geometricPrecision" image-rendering="optimizeQuality" fill-rule="evenodd" clip-rule="evenodd"
viewBox="0 0 20006.84 4511.43"
 xmlns:xlink="http://www.w3.org/1999/xlink"
 xmlns:xodm="http://www.corel.com/coreldraw/odm/2003">
 <g id="Capa_x0020_1">
  <metadata id="CorelCorpID_0Corel-Layer"/>
  <g id="_1864317352576">
   <path fill="white" fill-rule="nonzero" d="M3344.43 4158.98c-83.98,49.06 -170.93,92.9 -261.61,130.06 -272.75,113.72 -557.39,170.2 -853.2,170.2 -295.79,0 -580.43,-56.48 -853.19,-170.2 -273.5,-112.95 -514.29,-274.24 -723.14,-483.08 -208.84,-208.84 -370.12,-449.64 -483.08,-723.14 -113.7,-272.76 -170.2,-557.4 -170.2,-853.2 0,-295.79 56.5,-580.43 170.2,-853.19 112.96,-273.5 274.24,-514.3 483.08,-723.14 208.85,-208.84 449.64,-370.13 723.14,-483.08 272.76,-113.72 557.4,-170.2 853.19,-170.2 295.81,0 580.45,56.48 853.2,170.2 273.5,112.95 514.3,274.24 723.14,483.08 208.84,208.84 370.13,449.64 483.08,723.14 30.28,72.61 56.5,146.06 78.66,220.34l2.75 -6.67c106.77,-258.5 259.2,-486.1 456.58,-683.49 197.41,-197.38 424.99,-349.82 683.49,-456.58 257.79,-107.48 526.83,-160.87 806.41,-160.87 279.57,0 548.62,53.39 806.39,160.87 258.5,106.76 486.1,259.19 683.49,456.58 197.38,197.39 349.83,424.99 457.29,683.49l5.49 13.54c19.56,-61.45 41.88,-122.33 67.02,-182.62 112.96,-273.5 274.24,-514.3 483.08,-723.14 208.85,-208.84 449.64,-370.13 723.13,-483.08 272.77,-113.72 557.41,-170.2 853.2,-170.2l0 672.72c6.36,-6.51 12.76,-13 19.21,-19.44 208.85,-208.84 449.64,-370.13 723.13,-483.08 272.77,-113.72 557.41,-170.2 853.2,-170.2 295.81,0 580.45,56.48 853.2,170.2 273.5,112.95 514.3,274.24 723.14,483.08 208.84,208.84 370.13,449.64 483.08,723.14 113.72,272.76 170.2,557.4 170.2,853.19 0,295.8 -56.48,580.44 -170.2,853.2 -112.95,273.5 -274.24,514.3 -483.08,723.14 -208.84,208.84 -449.64,370.13 -723.14,483.08 -272.75,113.72 -557.39,170.2 -853.2,170.2 -295.79,0 -580.43,-56.48 -853.2,-170.2 -273.49,-112.95 -514.28,-274.24 -723.13,-483.08 -208.84,-208.84 -370.12,-449.64 -483.09,-723.14 -113.7,-272.76 -170.19,-557.4 -170.19,-853.2 0,-295.79 56.49,-580.43 170.19,-853.19 28.78,-69.69 60.73,-137.28 95.78,-202.74 -155.03,53.12 -295.24,142.19 -420.44,267.39 -217.75,217.76 -326.26,480.86 -326.26,788.54l0 2229.63 -1114.81 0 0 -2110.94 -2104.49 641.42 -280.27 -1016.43 1226.47 -378.63c-194.56,-197.38 -424.98,-296.43 -691.2,-296.43 -290.81,0 -539.49,102.55 -745.3,308.38 -205.81,205.82 -308.38,454.48 -308.38,745.3 0,290.81 102.57,539.47 308.38,745.29 205.82,205.82 454.5,308.37 745.3,308.37 290.81,0 539.47,-103.26 745.29,-309.08l744.59 745.3c-197.39,197.38 -424.99,349.82 -683.49,456.58 -257.77,107.48 -526.82,160.87 -806.39,160.87 -279.58,0 -548.62,-53.39 -806.41,-160.87 -258.5,-106.76 -486.08,-259.19 -683.49,-456.58 -147.95,-147.97 -270.65,-312.91 -367.78,-495.11l0 1067.97 -1114.81 0 0 -300.26zm8647.14 -769.95c307.7,0 570.78,-108.5 788.54,-326.26 217.76,-217.76 326.27,-480.86 326.27,-788.55 0,-307.69 -108.51,-570.78 -326.27,-788.54 -217.76,-217.76 -480.85,-326.26 -788.54,-326.26 -307.68,0 -570.78,108.5 -788.54,326.26 -217.75,217.76 -326.26,480.86 -326.26,788.54 0,307.7 108.51,570.79 326.26,788.55 217.76,217.76 480.87,326.26 788.54,326.26zm-9761.96 -2274.22c-307.68,0 -570.78,108.5 -788.54,326.26 -217.74,217.76 -326.26,480.86 -326.26,788.54 0,307.7 108.52,570.79 326.26,788.55 217.76,217.76 480.87,326.26 788.54,326.26 307.7,0 570.79,-108.5 788.55,-326.26 217.76,-217.76 326.26,-480.86 326.26,-788.55 0,-307.69 -108.5,-570.78 -326.26,-788.54 -217.76,-217.76 -480.86,-326.26 -788.55,-326.26z"/>
   <path fill="white" fill-rule="nonzero" d="M18557.42 4503.83c-192.28,0 -377.33,-36.72 -554.64,-110.64 -177.79,-73.43 -334.33,-178.27 -470.1,-314.04 -135.75,-135.76 -240.59,-292.31 -314.04,-470.09 -73.92,-177.32 -110.64,-362.36 -110.64,-554.65 0,-192.29 36.73,-377.33 110.64,-554.64 73.44,-177.79 178.28,-334.34 314.04,-470.1 135.77,-135.75 292.31,-240.6 470.1,-314.04 177.31,-73.93 362.36,-110.64 554.64,-110.64 192.3,0 377.34,36.72 554.65,110.64 177.79,73.43 334.33,178.28 470.09,314.04 135.76,135.76 240.6,292.31 314.04,470.1 73.93,177.31 110.64,362.35 110.64,554.64 0,192.29 -36.72,377.33 -110.64,554.65 -73.43,177.78 -178.27,334.33 -314.04,470.09 -135.76,135.76 -292.3,240.6 -470.09,314.04 -177.31,73.93 -362.35,110.64 -554.65,110.64zm0 -724.71c200.02,0 371.06,-70.53 512.61,-212.1 141.57,-141.56 212.1,-312.59 212.1,-512.61 0,-200.02 -70.53,-371.06 -212.1,-512.61 -141.56,-141.57 -312.59,-212.1 -512.61,-212.1 -200.01,0 -371.05,70.53 -512.61,212.1 -141.56,141.56 -212.1,312.59 -212.1,512.61 0,200.02 70.54,371.06 212.1,512.61 141.57,141.57 312.6,212.1 512.61,212.1z"/>
   <path fill="white" fill-rule="nonzero" d="M17261.1 4085.13c-283.63,284.19 -627.22,426.29 -1030.74,426.29 -403.53,0 -747.1,-142.1 -1030.74,-426.29 -284.18,-283.62 -426.28,-627.21 -426.28,-1030.74 0,-403.52 142.1,-747.09 426.28,-1030.73 283.63,-284.19 627.21,-426.29 1030.74,-426.29 403.52,0 747.1,142.1 1030.74,426.29l3.32 2.77 -442.38 442.38 -2.77 -3.33c-162.63,-162.63 -359.12,-243.67 -588.91,-243.67 -229.79,0 -426.28,81.04 -588.92,243.67 -162.63,162.64 -243.67,359.12 -243.67,588.91 0,229.8 81.04,426.29 243.67,588.92 162.64,162.63 359.13,243.67 588.92,243.67 229.79,0 426.28,-81.59 588.91,-244.23l2.77 -2.77 442.38 442.38 -3.32 2.77z"/>
  </g>
 </g>
</svg>
